{"title":"Captain.Phillips.2013.BRrip.480p.Eng-Hindi[~HFR~]","uid":9622698,"size":590429447,"categoryP":"video","categoryS":"movies","magnet":"?xt=urn:btih:2b28e2c7cfd8ba78cb0daba415abd755231ad81b&amp;dn=Captain.Phillips.2013.BRrip.480p.Eng-Hindi%5B%7EHFR%7E%5D&amp;tr=udp%3A%2F%2Ftracker.openbittorrent.com%3A80&amp;tr=udp%3A%2F%2Fopen.demonii.com%3A1337&amp;tr=udp%3A%2F%2Ftracker.coppersurfer.tk%3A6969&amp;tr=udp%3A%2F%2Fexodus.desync.com%3A6969","seeders":1,"leechers":0,"uploader":"haun00","files":7,"time":1392536117,"description":"[quote][IMG]http://static.squarespace.com/static/51a680e1e4b06a70036b6ec9/t/52df0ae8e4b081ed48bc573e/1390349062987/captain-phillips-blu-ray-cover-whysoblu-848x1024.jpg[/IMG]\n\n[img]http://img24.imageshack.us/img24/7453/infohr.png[/img]\nGeneral\nComplete name                    : Captain.Phillips.2013.BRrip.480p.Eng-Hindi[~HFR~]\nFormat                           : MPEG-4\nFormat profile                   : Base Media\nCodec ID                         : isom\nFile size                        : 561 MiB\nDuration                         : 2h 14mn\n\nVideo\nID                               : 1\nFormat                           : AVC\nFormat/Info                      : Advanced Video Codec\nFormat profile                   : &lt;a class=&quot;__cf_email__&quot; href=&quot;/cdn-cgi/l/email-protection&quot; data-cfemail=&quot;a5edccc2cde5e9968b95&quot;&gt;[email&amp;#160;protected]&lt;/a&gt;&lt;script cf-hash='f9e31' type=&quot;text/javascript&quot;&gt;\n/* &lt;![CDATA[ */!function(){try{var t=&quot;currentScript&quot;in document?document.currentScript:function(){for(var t=document.getElementsByTagName(&quot;script&quot;),e=t.length;e--;)if(t[e].getAttribute(&quot;cf-hash&quot;))return t[e]}();if(t&amp;&amp;t.previousSibling){var e,r,n,i,c=t.previousSibling,a=c.getAttribute(&quot;data-cfemail&quot;);if(a){for(e=&quot;&quot;,r=parseInt(a.substr(0,2),16),n=2;a.length-n;n+=2)i=parseInt(a.substr(n,2),16)^r,e+=String.fromCharCode(i);e=document.createTextNode(e),c.parentNode.replaceChild(e,c)}}}catch(u){}}();/* ]]&gt; */&lt;/script&gt;\nFormat settings, CABAC           : Yes\nFormat settings, ReFrames        : 4 frames\nCodec ID                         : avc1\nCodec ID/Info                    : Advanced Video Coding\nDuration                         : 2h 14mn\nMaximum bit rate                 : 4 031 Kbps\nWidth                            : 720 pixels\nHeight                           : 304 pixels\nDisplay aspect ratio             : 2.35:1\nFrame rate mode                  : Constant\nFrame rate                       : 23.976 fps\nColor space                      : YUV\nChroma subsampling               : 4:2:0\nBit depth                        : 8 bits\nScan type                        : Progressive\nBits/(Pixel*Frame)               : 0.091\nStream size                      : 459 MiB (82%)\nWriting library                  : x264 core 133 r2334 a3ac64b\nEncoded date                     : UTC 2014-01-29 05:21:23\nTagged date                      : UTC 2014-02-16 05:52:06\n\nAudio #1\nID                               : 2\nFormat                           : MPEG Audio\nFormat version                   : Version 2\nFormat profile                   : Layer 3\nMode                             : Joint stereo\nMode extension                   : MS Stereo\nCodec ID                         : 69\nDuration                         : 2h 14mn\nBit rate mode                    : Constant\nBit rate                         : 40.0 Kbps\nMaximum bit rate                 : 41.8 Kbps\nChannel(s)                       : 2 channels\nSampling rate                    : 16.0 KHz\nCompression mode                 : Lossy\nStream size                      : 38.4 MiB (7%)\nTitle                            : ~HFR~\nWriting library                  : LAME3.99r\nEncoding settings                : -m j -V 4 -q 2 -lowpass 7 -b 40\nLanguage                         : English\nEncoded date                     : UTC 2014-02-01 05:04:14\nTagged date                      : UTC 2014-02-16 05:52:06\n\nAudio #2\nID                               : 3\nFormat                           : AC-3\nFormat/Info                      : Audio Coding 3\nMode extension                   : CM (complete main)\nCodec ID                         : ac-3\nDuration                         : 2h 14mn\nBit rate mode                    : Constant\nChannel(s)                       : 2 channels\nChannel positions                : Front: L R\nSampling rate                    : 48.0 KHz\nBit depth                        : 16 bits\nCompression mode                 : Lossy\nTitle                            : ~HFR~\nLanguage                         : Hindi[credits to D3Si MaNiACs]\nEncoded date                     : UTC 2014-02-16 05:51:52\nTagged date                      : UTC 2014-02-16 05:52:06\n\nText\nID                               : 4\nFormat                           : Timed text\nCodec ID                         : tx3g\nDuration                         : 2h 6mn\nBit rate mode                    : Variable\nBit rate                         : 59 bps\nStream size                      : 55.2 KiB (0%)\nTitle                            : ~HFR~\nLanguage                         : English\nEncoded date                     : UTC 2014-02-16 05:52:06\nTagged date                      : UTC 2014-02-16 05:52:06\n[img]http://img4.imageshack.us/img4/959/plotbi.png[/img]\nCaptain Phillips is a multi-layered examination of the 2009 hijacking of the U.S. container ship Maersk Alabama by a crew of Somali pirates. It is - through director Paul Greengrass's distinctive lens - simultaneously a pulse-pounding thriller, and a complex portrait of the myriad effects of globalization. The film focuses on the relationship between the Alabama's commanding officer, Captain Richard Phillips (two time Academy AwardÂ®-winner Tom Hanks), and the Somali pirate captain, Muse (Barkhad Abdi), who takes him hostage. Phillips and Muse are set on an unstoppable collision course when Muse and his crew target Phillips' unarmed ship; in the ensuing standoff, 145 miles off the Somali coast, both men will find themselves at the mercy of forces beyond their control.\n[img]http://img546.imageshack.us/img546/3949/imdblogoy.png[/img]\n[url]http://www.imdb.com/title/tt1535109/[/url]\n\n[img]http://img696.imageshack.us/img696/9545/castec.png[/img]\n\nDirector:\nPaul Greengrass\nWriters:\nBilly Ray (screenplay), Richard Phillips (based upon the book &quot;A Captain's Duty: Somali Pirates, Navy SEALS, and Dangerous Days at Sea&quot; by), 1 more credit Â»\nStars:\nTom Hanks, Barkhad Abdi, Barkhad Abdirahman \n\n[img]http://img846.imageshack.us/img846/4092/boxx.jpg[/img]\n\n\nBudget:\n$55,000,000 (estimated)\nOpening Weekend:\n$25,718,314 (USA) (11 October 2013)\nGross:\n$106,244,151 (USA) (24 January 2014)  \n\n\n[img]http://img31.imageshack.us/img31/640/screendta.png[/img]\n[img]http://imageshack.com/a/img59/9306/02mp.png[/img]\n[img]http://imageshack.com/a/img849/5096/mfzn.png[/img]\n[img]http://imageshack.com/a/img827/9082/byun.png[/img]\n[img]http://imageshack.com/a/img534/4417/x2yp.png[/img]\n[img]http://imageshack.com/a/img823/3872/5n9z.jpg[/img]\nLike page\n\njoin Group\n\n[img]http://img98.imageshack.us/img98/4050/seedv.gif[/img][/quote]\n[color=red][size=5][font=Impact]If You Like My Upload U can Add review here[url=http://extratorrent.com/user/review_add/?user=haun]Add Review[/url][/font][/size][/color]\n[color=maroon][size=5][font=Impact]Check my torrents here [url=http://extratorrent.com/profile/haun/torrents/]HFR Torrents[/url][/font][/size][/color]","torrent":{"xt":"urn:btih:2b28e2c7cfd8ba78cb0daba415abd755231ad81b","amp;dn":"Captain.Phillips.2013.BRrip.480p.Eng-Hindi%5B%7EHFR%7E%5D","amp;tr":["udp%3A%2F%2Ftracker.openbittorrent.com%3A80","udp%3A%2F%2Fopen.demonii.com%3A1337","udp%3A%2F%2Ftracker.coppersurfer.tk%3A6969","udp%3A%2F%2Fexodus.desync.com%3A6969"],"infoHash":"2b28e2c7cfd8ba78cb0daba415abd755231ad81b","infoHashBuffer":{"type":"Buffer","data":[43,40,226,199,207,216,186,120,203,13,171,164,21,171,215,85,35,26,216,27]},"announce":[],"urlList":[]}}